<?xml version="1.0" encoding="iso-8859-1"?>
<svg fill="white" version="1.1" id="Capa_1" xmlns="http://www.w3.org/2000/svg" xmlns:xlink="http://www.w3.org/1999/xlink"
	 width="800px" height="800px" viewBox="0 0 111.67 111.67"
	 xml:space="preserve">
<g>
	<path d="M32.63,36.011h-29v-29h29V36.011z M96.545,73.815c-8.34,0-15.125,6.785-15.125,15.125s6.785,15.125,15.125,15.125
		S111.67,97.28,111.67,88.94S104.885,73.815,96.545,73.815z M20.632,52.296V40.963h-5v13.679H15.63v15.166h5V57.296h9.5h4.059
		h59.856v12.512h5V54.642h-0.052v-2.346H34.189H30.13H20.632z M9.075,73.224L0,88.94l9.075,15.719h18.148l9.075-15.719
		l-9.075-15.717H9.075L9.075,73.224z"/>
</g>
</svg>