<?xml version="1.0" encoding="UTF-8"?>
<svg xmlns="http://www.w3.org/2000/svg" version="1.1" width="512px" height="512px" style="shape-rendering:geometricPrecision; text-rendering:geometricPrecision; image-rendering:optimizeQuality; fill-rule:evenodd; clip-rule:evenodd" xmlns:xlink="http://www.w3.org/1999/xlink">
<g><path style="opacity:0.982" fill="white" d="M 43.5,-0.5 C 122.5,-0.5 201.5,-0.5 280.5,-0.5C 317.104,34.2706 352.938,69.9373 388,106.5C 389.15,133.42 389.983,160.42 390.5,187.5C 430.416,207.439 451.416,239.772 453.5,284.5C 453.506,306.981 447.006,327.314 434,345.5C 433.333,346.5 433.333,347.5 434,348.5C 460.425,374.424 486.259,400.757 511.5,427.5C 511.5,431.167 511.5,434.833 511.5,438.5C 505.921,448.303 497.921,450.803 487.5,446C 462,420.5 436.5,395 411,369.5C 404.294,374.02 397.294,378.02 390,381.5C 389.667,410.167 389.333,438.833 389,467.5C 382.985,490.681 368.485,505.348 345.5,511.5C 244.833,511.5 144.167,511.5 43.5,511.5C 20.5,505.167 5.83333,490.5 -0.5,467.5C -0.5,326.167 -0.5,184.833 -0.5,43.5C 5.83333,20.5 20.5,5.83333 43.5,-0.5 Z M 54.5,29.5 C 122.833,29.5 191.167,29.5 259.5,29.5C 259.333,59.8352 259.5,90.1685 260,120.5C 261.5,124.667 264.333,127.5 268.5,129C 298.832,129.5 329.165,129.667 359.5,129.5C 359.5,146.167 359.5,162.833 359.5,179.5C 309.469,176.924 273.302,197.924 251,242.5C 233.727,290.238 243.56,331.404 280.5,366C 303.562,384.406 329.895,392.239 359.5,389.5C 359.93,414.201 359.43,438.867 358,463.5C 355.167,471.667 349.667,477.167 341.5,480C 245.859,481.65 150.193,481.983 54.5,481C 39.6667,479.5 31.5,471.333 30,456.5C 29.3333,322.5 29.3333,188.5 30,54.5C 31.6779,39.6564 39.8446,31.3231 54.5,29.5 Z M 289.5,52.5 C 305.299,67.7982 320.965,83.2982 336.5,99C 320.837,99.4999 305.17,99.6666 289.5,99.5C 289.5,83.8333 289.5,68.1667 289.5,52.5 Z M 347.5,209.5 C 386.575,212.286 411.075,232.619 421,270.5C 425.584,307.167 411.75,334.334 379.5,352C 345.717,365.309 316.217,358.809 291,332.5C 267.667,300.5 267.667,268.5 291,236.5C 306.1,219.532 324.934,210.532 347.5,209.5 Z"/></g>
<g><path style="opacity:0.991" fill="white" d="M 68.5,159.5 C 129.168,159.333 189.834,159.5 250.5,160C 258.915,164.348 261.748,171.181 259,180.5C 257.5,184.667 254.667,187.5 250.5,189C 189.833,189.667 129.167,189.667 68.5,189C 59.5253,183.848 57.0253,176.348 61,166.5C 63.0147,163.588 65.5147,161.255 68.5,159.5 Z"/></g>
<g><path style="opacity:0.989" fill="white" d="M 68.5,219.5 C 115.835,219.333 163.168,219.5 210.5,220C 218.915,224.348 221.748,231.181 219,240.5C 217.5,244.667 214.667,247.5 210.5,249C 163.167,249.667 115.833,249.667 68.5,249C 59.5253,243.848 57.0253,236.348 61,226.5C 63.0147,223.588 65.5147,221.255 68.5,219.5 Z"/></g>
<g><path style="opacity:0.989" fill="white" d="M 68.5,279.5 C 115.835,279.333 163.168,279.5 210.5,280C 218.915,284.348 221.748,291.181 219,300.5C 217.5,304.667 214.667,307.5 210.5,309C 163.167,309.667 115.833,309.667 68.5,309C 59.5253,303.848 57.0253,296.348 61,286.5C 63.0147,283.588 65.5147,281.255 68.5,279.5 Z"/></g>
<g><path style="opacity:0.989" fill="white" d="M 68.5,339.5 C 115.835,339.333 163.168,339.5 210.5,340C 218.915,344.348 221.748,351.181 219,360.5C 217.5,364.667 214.667,367.5 210.5,369C 163.167,369.667 115.833,369.667 68.5,369C 59.5253,363.848 57.0253,356.348 61,346.5C 63.0147,343.588 65.5147,341.255 68.5,339.5 Z"/></g>
</svg>
